<svg width="38" height="31" viewBox="0 0 38 31" fill="none" xmlns="http://www.w3.org/2000/svg">
<path d="M4.57286 30.48H33.0273C35.5353 27.3564 37.0401 23.3892 37.0401 19.08C37.0401 9.00243 28.8777 0.840027 18.8001 0.840027C8.72246 0.840027 0.560059 9.00243 0.560059 19.08C0.560059 23.3892 2.06486 27.3564 4.57286 30.48ZM18.8001 3.12003C20.0541 3.12003 21.0801 4.14603 21.0801 5.40003C21.0801 6.65403 20.0541 7.68003 18.8001 7.68003C17.5461 7.68003 16.5201 6.65403 16.5201 5.40003C16.5201 4.14603 17.5461 3.12003 18.8001 3.12003ZM9.68006 7.68003C10.9341 7.68003 11.9601 8.70603 11.9601 9.96003C11.9601 11.214 10.9341 12.24 9.68006 12.24C8.42606 12.24 7.40006 11.214 7.40006 9.96003C7.40006 8.70603 8.42606 7.68003 9.68006 7.68003ZM27.9201 7.68003C29.1741 7.68003 30.2001 8.70603 30.2001 9.96003C30.2001 11.214 29.1741 12.24 27.9201 12.24C26.6661 12.24 25.6401 11.214 25.6401 9.96003C25.6401 8.70603 26.6661 7.68003 27.9201 7.68003ZM15.6765 20.334L23.3601 9.96003V23.64C23.3601 26.148 21.3081 28.2 18.8001 28.2C16.2921 28.2 14.2401 26.148 14.2401 23.64C14.2401 22.3404 14.7873 21.1776 15.6765 20.334ZM5.12006 16.8C6.37406 16.8 7.40006 17.826 7.40006 19.08C7.40006 20.334 6.37406 21.36 5.12006 21.36C3.86606 21.36 2.84006 20.334 2.84006 19.08C2.84006 17.826 3.86606 16.8 5.12006 16.8ZM32.4801 16.8C33.7341 16.8 34.7601 17.826 34.7601 19.08C34.7601 20.334 33.7341 21.36 32.4801 21.36C31.2261 21.36 30.2001 20.334 30.2001 19.08C30.2001 17.826 31.2261 16.8 32.4801 16.8ZM21.0801 23.64C21.0801 22.386 20.0541 21.36 18.8001 21.36C17.5461 21.36 16.5201 22.386 16.5201 23.64C16.5201 24.894 17.5461 25.92 18.8001 25.92C20.0541 25.92 21.0801 24.894 21.0801 23.64Z" fill="#0D4293"/>
</svg>
