<svg width="36" height="26" viewBox="0 0 36 26" fill="none" xmlns="http://www.w3.org/2000/svg">
<path d="M4.12769 0.399994H31.9527C34.5777 0.399994 35.9007 1.63899 35.9007 4.15899V21.841C35.9007 24.34 34.5777 25.6 31.9527 25.6H4.12769C1.50269 25.6 0.179688 24.34 0.179688 21.841V4.15899C0.179688 1.63899 1.50269 0.399994 4.12769 0.399994ZM18.0297 18.46L32.1837 6.84699C32.6877 6.42699 33.0867 5.46099 32.4567 4.59999C31.8477 3.73899 30.7347 3.71799 29.9997 4.24299L18.0297 12.349L6.08069 4.24299C5.34569 3.71799 4.23269 3.73899 3.62369 4.59999C2.99369 5.46099 3.39269 6.42699 3.89669 6.84699L18.0297 18.46Z" fill="#0D4293"/>
</svg>
