<svg width="34" height="38" viewBox="0 0 34 38" fill="none" xmlns="http://www.w3.org/2000/svg">
<path d="M16.7997 17.09C11.6241 17.09 10.5753 9.2468 10.5753 9.2468C9.95968 5.1656 11.8293 0.559998 16.7313 0.559998C21.6561 0.559998 23.5257 5.1656 22.9101 9.2468C22.9101 9.2468 21.9753 17.09 16.7997 17.09ZM16.7997 22.9496L23.0013 18.8C28.4505 18.8 33.3069 24.1124 33.3069 29.1284V34.8056C33.3069 34.8056 24.9849 37.382 16.7997 37.382C8.47768 37.382 0.29248 34.8056 0.29248 34.8056V29.1284C0.29248 23.9984 4.71568 18.914 10.4841 18.914L16.7997 22.9496Z" fill="#0D4293"/>
</svg>
