<svg width="35" height="36" viewBox="0 0 35 36" fill="none" xmlns="http://www.w3.org/2000/svg">
<path d="M13.3082 4.16879C12.647 7.08719 14.5622 12.0576 17.7998 12.0576C21.0146 12.0576 22.9298 7.08719 22.2686 4.16879C21.767 1.93439 19.8062 0.452393 17.7998 0.452393C15.7706 0.452393 13.8326 1.93439 13.3082 4.16879ZM3.89184 6.22079C3.32184 8.68319 4.96344 12.9012 7.69944 12.9012C10.4354 12.9012 12.077 8.68319 11.507 6.22079C11.0738 4.32839 9.40944 3.05159 7.69944 3.05159C5.98944 3.05159 4.32504 4.32839 3.89184 6.22079ZM24.0926 6.22079C23.5226 8.68319 25.1642 12.9012 27.8774 12.9012C30.6134 12.9012 32.255 8.68319 31.685 6.22079C31.2518 4.32839 29.5874 3.05159 27.8774 3.05159C26.1902 3.05159 24.5258 4.32839 24.0926 6.22079ZM22.7474 32.2812L25.5974 22.4772C27.3758 16.8 23.9786 13.3116 17.7998 13.3116C11.5982 13.3116 8.20104 16.8 9.95664 22.4772L12.8294 32.2812C13.3538 33.9228 15.5198 35.04 17.7998 35.04C20.0342 35.04 22.223 33.9228 22.7474 32.2812ZM8.83944 14.8848C7.72224 16.4124 6.65064 19.0572 7.88184 23.07L10.4354 31.7112C9.66024 32.1672 8.67984 32.418 7.69944 32.418C5.76144 32.418 3.93744 31.4832 3.48144 30.0696L1.04184 21.7476C-0.440158 16.9368 2.43264 13.9956 7.69944 13.9956C8.31504 13.9956 8.93064 14.0412 9.50064 14.1324C9.27264 14.3604 9.04464 14.634 8.83944 14.8848ZM27.8774 13.9956C33.1442 13.9956 36.0398 16.9368 34.535 21.7476L32.0954 30.0696C31.6394 31.4832 29.8154 32.418 27.8774 32.418C26.897 32.418 25.9166 32.1672 25.1414 31.7112L27.6722 23.1156C28.9262 19.0572 27.8546 16.4124 26.7146 14.8848C26.5322 14.634 26.3042 14.3604 26.0762 14.1324C26.6462 14.0412 27.239 13.9956 27.8774 13.9956Z" fill="#0D4293"/>
</svg>
