<svg width="46" height="46" viewBox="0 0 46 46" fill="none" xmlns="http://www.w3.org/2000/svg">
<path d="M0 0H45.6V45.6H0V0Z" fill="#D9D9D9" fill-opacity="0.16"/>
<path d="M8.57286 36.48H37.0273C39.5353 33.3564 41.0401 29.3892 41.0401 25.08C41.0401 15.0024 32.8777 6.84003 22.8001 6.84003C12.7225 6.84003 4.56006 15.0024 4.56006 25.08C4.56006 29.3892 6.06486 33.3564 8.57286 36.48ZM22.8001 9.12003C24.0541 9.12003 25.0801 10.146 25.0801 11.4C25.0801 12.654 24.0541 13.68 22.8001 13.68C21.5461 13.68 20.5201 12.654 20.5201 11.4C20.5201 10.146 21.5461 9.12003 22.8001 9.12003ZM13.6801 13.68C14.9341 13.68 15.9601 14.706 15.9601 15.96C15.9601 17.214 14.9341 18.24 13.6801 18.24C12.4261 18.24 11.4001 17.214 11.4001 15.96C11.4001 14.706 12.4261 13.68 13.6801 13.68ZM31.9201 13.68C33.1741 13.68 34.2001 14.706 34.2001 15.96C34.2001 17.214 33.1741 18.24 31.9201 18.24C30.6661 18.24 29.6401 17.214 29.6401 15.96C29.6401 14.706 30.6661 13.68 31.9201 13.68ZM19.6765 26.334L27.3601 15.96V29.64C27.3601 32.148 25.3081 34.2 22.8001 34.2C20.2921 34.2 18.2401 32.148 18.2401 29.64C18.2401 28.3404 18.7873 27.1776 19.6765 26.334ZM9.12006 22.8C10.3741 22.8 11.4001 23.826 11.4001 25.08C11.4001 26.334 10.3741 27.36 9.12006 27.36C7.86606 27.36 6.84006 26.334 6.84006 25.08C6.84006 23.826 7.86606 22.8 9.12006 22.8ZM36.4801 22.8C37.7341 22.8 38.7601 23.826 38.7601 25.08C38.7601 26.334 37.7341 27.36 36.4801 27.36C35.2261 27.36 34.2001 26.334 34.2001 25.08C34.2001 23.826 35.2261 22.8 36.4801 22.8ZM25.0801 29.64C25.0801 28.386 24.0541 27.36 22.8001 27.36C21.5461 27.36 20.5201 28.386 20.5201 29.64C20.5201 30.894 21.5461 31.92 22.8001 31.92C24.0541 31.92 25.0801 30.894 25.0801 29.64Z" fill="#0D4293"/>
</svg>
